# xmcd CD database file
#
# Track frame offsets:
#	150
#	18080
#	34886
#	56595
#	76038
#	97356
#	117252
#	137330
#	154358
#	174288
#	193599
#
# Disc length: 2919 seconds
#
# Revision: 0
# Processed by: cddbd v1.5PL3 Copyright (c) Steve Scherf et al.
# Submitted via: CDex 1.51
#
DISCID=860b650b
DTITLE=Braxton Brothers  - Rollin'
DYEAR=2004
DGENRE=Jazz
TTITLE0=Don't Stop
TTITLE1=I Want You For Myself
TTITLE2=It's You
TTITLE3=Blue Sands
TTITLE4=Find Your Way
TTITLE5=When You Touch Me
TTITLE6=Tonight
TTITLE7=Rollin'
TTITLE8=Anything For You
TTITLE9=Love Is Crazy
TTITLE10=Best Days
EXTD=YEAR: 2004
EXTT0=
EXTT1=
EXTT2=
EXTT3=
EXTT4=
EXTT5=
EXTT6=
EXTT7=
EXTT8=
EXTT9=
EXTT10=
PLAYORDER=
